<?xml version="1.0" encoding="UTF-8" standalone="no"?>
<!DOCTYPE svg PUBLIC "-//W3C//DTD SVG 1.1//EN" "http://www.w3.org/Graphics/SVG/1.1/DTD/svg11.dtd">
<svg version="1.1" xmlns="http://www.w3.org/2000/svg" xmlns:xlink="http://www.w3.org/1999/xlink" preserveAspectRatio="xMidYMid meet" viewBox="0 0 240 140" width="240" height="140"><defs><path d="M137.68 14.83L123.94 14.83L123.94 26.62L121.6 26.62L121.6 1.42L123.94 1.42L123.94 12.72L137.68 12.72L137.68 1.42L140.02 1.42L140.02 26.62L137.68 26.62L137.68 14.83Z" id="n4oipaP5P1"></path><path d="M146.56 1.42L158.84 1.42L158.84 3.57L148.9 3.57L148.9 12.81L158.11 12.81L158.11 14.92L148.9 14.92L148.9 24.5L159.41 24.5L159.41 26.62L146.56 26.62L146.56 1.42Z" id="f2mLGiXF2I"></path><path d="M164.66 1.42L167 1.42L167 24.5L177.12 24.5L177.12 26.62L164.66 26.62L164.66 1.42Z" id="cqpriGlFI"></path><path d="M181.37 1.42L183.71 1.42L183.71 24.5L193.84 24.5L193.84 26.62L181.37 26.62L181.37 1.42Z" id="bCkq9aRXk"></path><path d="M202.22 26.07C200.77 25.41 199.53 24.5 198.52 23.36C197.51 22.21 196.73 20.86 196.18 19.3C195.64 17.75 195.36 16.09 195.36 14.3C195.36 12.34 195.64 10.53 196.18 8.9C196.73 7.27 197.52 5.87 198.56 4.7C199.61 3.53 200.88 2.63 202.39 1.98C203.91 1.32 205.63 1 207.56 1C209.34 1 210.94 1.32 212.36 1.96C213.78 2.6 214.98 3.48 215.98 4.61C216.98 5.74 217.74 7.08 218.27 8.63C218.81 10.17 219.07 11.86 219.07 13.67C219.07 15.58 218.81 17.35 218.29 18.99C217.77 20.62 217 22.04 215.99 23.23C214.98 24.43 213.73 25.36 212.25 26.04C210.76 26.72 209.06 27.06 207.12 27.06C205.31 27.06 203.67 26.73 202.22 26.07ZM203.26 4C202.09 4.58 201.09 5.36 200.28 6.35C199.48 7.34 198.86 8.5 198.45 9.83C198.03 11.16 197.82 12.57 197.81 14.07C197.79 15.5 197.98 16.87 198.36 18.18C198.74 19.48 199.32 20.64 200.08 21.64C200.85 22.64 201.82 23.44 202.99 24.04C204.16 24.64 205.53 24.93 207.1 24.93C208.67 24.93 210.05 24.66 211.24 24.12C212.43 23.57 213.43 22.82 214.22 21.85C215.02 20.88 215.62 19.73 216.02 18.4C216.43 17.06 216.63 15.6 216.63 14.02C216.63 12.54 216.45 11.14 216.09 9.82C215.74 8.5 215.18 7.34 214.42 6.35C213.67 5.36 212.7 4.57 211.53 3.99C210.36 3.41 208.96 3.13 207.31 3.13C205.79 3.13 204.44 3.42 203.26 4Z" id="b6lNamej6"></path><path d="M140.88 69.82C137.64 58.61 135.85 52.38 135.49 51.13C135.36 50.69 135.26 50.26 135.18 49.85C135.1 49.44 135.06 49.04 135.05 48.66C135.04 48.66 134.98 48.66 134.98 48.66C134.93 49.34 134.76 50.15 134.47 51.1C134.09 52.35 132.23 58.59 128.88 69.82L126.43 69.82L119 44.61L121.6 44.61C124.93 56.48 126.78 63.07 127.15 64.39C127.28 64.82 127.39 65.23 127.46 65.63C127.54 66.02 127.6 66.4 127.65 66.76C127.65 66.76 127.71 66.76 127.72 66.76C127.79 66.23 127.98 65.44 128.3 64.39C128.69 63.07 130.66 56.48 134.2 44.62L136.05 44.62C139.37 56.52 141.22 63.14 141.58 64.46C141.69 64.86 141.78 65.25 141.87 65.63C141.95 66.01 142.01 66.38 142.06 66.74C142.07 66.74 142.12 66.74 142.13 66.74C142.15 66.51 142.2 66.24 142.27 65.95C142.34 65.66 142.42 65.33 142.51 64.97C142.88 63.61 144.72 56.83 148.03 44.62L150.58 44.62L143.32 69.82L140.88 69.82Z" id="ahECpg0mp"></path><path d="M159.88 69.26C158.43 68.6 157.19 67.7 156.18 66.55C155.17 65.4 154.39 64.05 153.84 62.5C153.3 60.94 153.03 59.28 153.03 57.5C153.03 55.53 153.3 53.73 153.84 52.09C154.39 50.46 155.18 49.06 156.22 47.89C157.27 46.73 158.54 45.82 160.06 45.17C161.57 44.52 163.29 44.19 165.22 44.19C167 44.19 168.6 44.51 170.02 45.15C171.44 45.79 172.65 46.67 173.64 47.8C174.64 48.93 175.4 50.27 175.94 51.82C176.47 53.37 176.74 55.05 176.74 56.86C176.74 58.77 176.47 60.55 175.95 62.18C175.43 63.81 174.66 65.23 173.65 66.42C172.64 67.62 171.39 68.56 169.91 69.24C168.43 69.92 166.72 70.26 164.78 70.26C162.97 70.26 161.33 69.93 159.88 69.26ZM160.93 47.19C159.75 47.77 158.76 48.55 157.95 49.54C157.14 50.53 156.53 51.69 156.11 53.02C155.69 54.35 155.48 55.77 155.47 57.27C155.46 58.7 155.64 60.06 156.02 61.37C156.4 62.68 156.98 63.83 157.75 64.83C158.51 65.83 159.48 66.63 160.65 67.23C161.83 67.83 163.2 68.13 164.77 68.13C166.34 68.13 167.72 67.86 168.91 67.31C170.1 66.77 171.09 66.01 171.88 65.04C172.68 64.08 173.28 62.93 173.69 61.59C174.09 60.25 174.29 58.8 174.29 57.21C174.29 55.74 174.11 54.34 173.76 53.01C173.4 51.69 172.84 50.53 172.09 49.54C171.33 48.55 170.37 47.77 169.19 47.19C168.02 46.61 166.62 46.32 164.98 46.32C163.45 46.32 162.1 46.61 160.93 47.19Z" id="aIBSXesob"></path><path d="M191.71 62.59C191.33 61.88 190.97 61.28 190.62 60.8C190.27 60.32 189.9 59.94 189.53 59.65C189.15 59.36 188.75 59.16 188.33 59.03C187.9 58.91 187.42 58.85 186.89 58.85C186.71 58.85 185.78 58.85 184.12 58.85L184.12 69.82L181.78 69.82L181.78 44.61C186.13 44.61 188.55 44.61 189.04 44.61C189.99 44.61 190.9 44.76 191.79 45.04C192.67 45.32 193.46 45.73 194.15 46.28C194.84 46.84 195.4 47.53 195.81 48.36C196.23 49.19 196.44 50.16 196.44 51.26C196.44 52.15 196.3 52.97 196.03 53.72C195.76 54.47 195.38 55.13 194.88 55.71C194.38 56.29 193.78 56.78 193.07 57.19C192.36 57.59 191.56 57.9 190.67 58.09C190.67 58.1 190.67 58.16 190.67 58.16C191.01 58.31 191.32 58.49 191.6 58.71C191.89 58.93 192.16 59.2 192.42 59.52C192.68 59.83 192.95 60.2 193.2 60.61C193.46 61.02 193.73 61.49 194.01 62.01C194.29 62.53 195.71 65.13 198.25 69.82L195.5 69.82C193.23 65.48 191.96 63.07 191.71 62.59ZM184.12 56.72C186.63 56.72 188.02 56.72 188.3 56.72C189.14 56.72 189.92 56.6 190.62 56.36C191.32 56.11 191.92 55.76 192.42 55.3C192.92 54.84 193.31 54.29 193.58 53.65C193.86 53.01 193.99 52.28 193.99 51.47C193.99 50 193.52 48.85 192.58 48.02C191.64 47.18 190.27 46.76 188.49 46.76C188.2 46.76 186.74 46.76 184.12 46.76L184.12 56.72Z" id="a5AKeXS8I"></path><path d="M202.53 44.61L204.87 44.61L204.87 67.69L215 67.69L215 69.82L202.53 69.82L202.53 44.61Z" id="eTDRE4mKj"></path><path d="M219.25 44.61C223.22 44.61 225.43 44.61 225.87 44.61C230.19 44.61 233.44 45.65 235.65 47.72C237.85 49.79 238.95 52.84 238.95 56.88C238.95 58.83 238.64 60.6 238.03 62.19C237.41 63.78 236.52 65.15 235.36 66.28C234.21 67.41 232.8 68.28 231.15 68.9C229.49 69.51 227.63 69.82 225.56 69.82C225.14 69.82 223.03 69.82 219.25 69.82L219.25 44.61ZM221.59 67.69C223.91 67.69 225.19 67.69 225.45 67.69C227.19 67.69 228.74 67.46 230.1 66.99C231.47 66.52 232.62 65.83 233.57 64.92C234.52 64.02 235.24 62.89 235.74 61.56C236.24 60.22 236.49 58.69 236.49 56.95C236.49 50.16 232.9 46.76 225.72 46.76C225.44 46.76 224.06 46.76 221.59 46.76L221.59 67.69Z" id="bIyMmmIAA"></path></defs><g><g><g><use xlink:href="#n4oipaP5P1" opacity="1" fill="#000000" fill-opacity="1"></use><g><use xlink:href="#n4oipaP5P1" opacity="1" fill-opacity="0" stroke="#000000" stroke-width="1" stroke-opacity="0"></use></g></g><g><use xlink:href="#f2mLGiXF2I" opacity="1" fill="#000000" fill-opacity="1"></use><g><use xlink:href="#f2mLGiXF2I" opacity="1" fill-opacity="0" stroke="#000000" stroke-width="1" stroke-opacity="0"></use></g></g><g><use xlink:href="#cqpriGlFI" opacity="1" fill="#000000" fill-opacity="1"></use><g><use xlink:href="#cqpriGlFI" opacity="1" fill-opacity="0" stroke="#000000" stroke-width="1" stroke-opacity="0"></use></g></g><g><use xlink:href="#bCkq9aRXk" opacity="1" fill="#000000" fill-opacity="1"></use><g><use xlink:href="#bCkq9aRXk" opacity="1" fill-opacity="0" stroke="#000000" stroke-width="1" stroke-opacity="0"></use></g></g><g><use xlink:href="#b6lNamej6" opacity="1" fill="#000000" fill-opacity="1"></use><g><use xlink:href="#b6lNamej6" opacity="1" fill-opacity="0" stroke="#000000" stroke-width="1" stroke-opacity="0"></use></g></g><g><use xlink:href="#ahECpg0mp" opacity="1" fill="#000000" fill-opacity="1"></use><g><use xlink:href="#ahECpg0mp" opacity="1" fill-opacity="0" stroke="#000000" stroke-width="1" stroke-opacity="0"></use></g></g><g><use xlink:href="#aIBSXesob" opacity="1" fill="#000000" fill-opacity="1"></use><g><use xlink:href="#aIBSXesob" opacity="1" fill-opacity="0" stroke="#000000" stroke-width="1" stroke-opacity="0"></use></g></g><g><use xlink:href="#a5AKeXS8I" opacity="1" fill="#000000" fill-opacity="1"></use><g><use xlink:href="#a5AKeXS8I" opacity="1" fill-opacity="0" stroke="#000000" stroke-width="1" stroke-opacity="0"></use></g></g><g><use xlink:href="#eTDRE4mKj" opacity="1" fill="#000000" fill-opacity="1"></use><g><use xlink:href="#eTDRE4mKj" opacity="1" fill-opacity="0" stroke="#000000" stroke-width="1" stroke-opacity="0"></use></g></g><g><use xlink:href="#bIyMmmIAA" opacity="1" fill="#000000" fill-opacity="1"></use><g><use xlink:href="#bIyMmmIAA" opacity="1" fill-opacity="0" stroke="#000000" stroke-width="1" stroke-opacity="0"></use></g></g></g></g></svg>