<?xml version="1.0" encoding="UTF-8" standalone="no"?>
<!DOCTYPE svg PUBLIC "-//W3C//DTD SVG 1.1//EN" "http://www.w3.org/Graphics/SVG/1.1/DTD/svg11.dtd">
<svg version="1.1" xmlns="http://www.w3.org/2000/svg" xmlns:xlink="http://www.w3.org/1999/xlink" preserveAspectRatio="xMidYMid meet" viewBox="0 0 240 140" width="240" height="140"><defs><path d="M123.94 15.83L123.94 27.62L121.6 27.62L121.6 2.42L123.94 2.42L123.94 13.72L137.68 13.72L137.68 2.42L140.02 2.42L140.02 27.62L137.68 27.62L137.68 15.83L123.94 15.83Z" id="d2a95QMr5v"></path><path d="M123.94 15.83L123.94 27.62L121.6 27.62L121.6 2.42L123.94 2.42L123.94 13.72L137.68 13.72L137.68 2.42L140.02 2.42L140.02 27.62L137.68 27.62L137.68 15.83L123.94 15.83Z" id="abEUT0s8h"></path><path d="M158.84 2.42L158.84 4.57L148.9 4.57L148.9 13.81L158.11 13.81L158.11 15.92L148.9 15.92L148.9 25.5L159.41 25.5L159.41 27.62L146.56 27.62L146.56 2.42L158.84 2.42Z" id="k9kQq8D7a"></path><path d="M158.84 2.42L158.84 4.57L148.9 4.57L148.9 13.81L158.11 13.81L158.11 15.92L148.9 15.92L148.9 25.5L159.41 25.5L159.41 27.62L146.56 27.62L146.56 2.42L158.84 2.42Z" id="a6JGccn44"></path><path d="M167 2.42L167 25.5L177.12 25.5L177.12 27.62L164.66 27.62L164.66 2.42L167 2.42Z" id="b1kBjzXTb3"></path><path d="M167 2.42L167 25.5L177.12 25.5L177.12 27.62L164.66 27.62L164.66 2.42L167 2.42Z" id="aHkWfeKys"></path><path d="M183.71 2.42L183.71 25.5L193.84 25.5L193.84 27.62L181.37 27.62L181.37 2.42L183.71 2.42Z" id="c54QtsXWrz"></path><path d="M183.71 2.42L183.71 25.5L193.84 25.5L193.84 27.62L181.37 27.62L181.37 2.42L183.71 2.42Z" id="c1xXMr1Hvb"></path><path d="M198.52 24.36C197.51 23.21 196.73 21.86 196.18 20.3C195.64 18.75 195.36 17.09 195.36 15.3C195.36 13.34 195.64 11.53 196.18 9.9C196.73 8.27 197.52 6.87 198.56 5.7C199.61 4.53 200.88 3.63 202.39 2.98C203.91 2.32 205.63 2 207.56 2C209.34 2 210.94 2.32 212.36 2.96C213.78 3.6 214.98 4.48 215.98 5.61C216.98 6.74 217.74 8.08 218.27 9.63C218.81 11.17 219.07 12.86 219.07 14.67C219.07 16.58 218.81 18.35 218.29 19.99C217.77 21.62 217 23.04 215.99 24.23C214.98 25.43 213.73 26.36 212.25 27.04C210.76 27.72 209.06 28.06 207.12 28.06C205.31 28.06 203.67 27.73 202.22 27.07C200.77 26.41 199.53 25.5 198.52 24.36ZM200.28 7.35C199.48 8.34 198.86 9.5 198.45 10.83C198.03 12.16 197.82 13.57 197.81 15.07C197.79 16.5 197.98 17.87 198.36 19.18C198.74 20.48 199.32 21.64 200.08 22.64C200.85 23.64 201.82 24.44 202.99 25.04C204.16 25.64 205.53 25.93 207.1 25.93C208.67 25.93 210.05 25.66 211.24 25.12C212.43 24.57 213.43 23.82 214.22 22.85C215.02 21.88 215.62 20.73 216.02 19.4C216.43 18.06 216.63 16.6 216.63 15.02C216.63 13.54 216.45 12.14 216.09 10.82C215.74 9.5 215.18 8.34 214.42 7.35C213.67 6.36 212.7 5.57 211.53 4.99C210.36 4.41 208.96 4.13 207.31 4.13C205.79 4.13 204.44 4.42 203.26 5C202.09 5.58 201.09 6.36 200.28 7.35Z" id="cETB2dX5O"></path><path d="M198.52 24.36C197.51 23.21 196.73 21.86 196.18 20.3C195.64 18.75 195.36 17.09 195.36 15.3C195.36 13.34 195.64 11.53 196.18 9.9C196.73 8.27 197.52 6.87 198.56 5.7C199.61 4.53 200.88 3.63 202.39 2.98C203.91 2.32 205.63 2 207.56 2C209.34 2 210.94 2.32 212.36 2.96C213.78 3.6 214.98 4.48 215.98 5.61C216.98 6.74 217.74 8.08 218.27 9.63C218.81 11.17 219.07 12.86 219.07 14.67C219.07 16.58 218.81 18.35 218.29 19.99C217.77 21.62 217 23.04 215.99 24.23C214.98 25.43 213.73 26.36 212.25 27.04C210.76 27.72 209.06 28.06 207.12 28.06C205.31 28.06 203.67 27.73 202.22 27.07C200.77 26.41 199.53 25.5 198.52 24.36ZM200.28 7.35C199.48 8.34 198.86 9.5 198.45 10.83C198.03 12.16 197.82 13.57 197.81 15.07C197.79 16.5 197.98 17.87 198.36 19.18C198.74 20.48 199.32 21.64 200.08 22.64C200.85 23.64 201.82 24.44 202.99 25.04C204.16 25.64 205.53 25.93 207.1 25.93C208.67 25.93 210.05 25.66 211.24 25.12C212.43 24.57 213.43 23.82 214.22 22.85C215.02 21.88 215.62 20.73 216.02 19.4C216.43 18.06 216.63 16.6 216.63 15.02C216.63 13.54 216.45 12.14 216.09 10.82C215.74 9.5 215.18 8.34 214.42 7.35C213.67 6.36 212.7 5.57 211.53 4.99C210.36 4.41 208.96 4.13 207.31 4.13C205.79 4.13 204.44 4.42 203.26 5C202.09 5.58 201.09 6.36 200.28 7.35Z" id="cj7VbeT4X"></path><path d="M135.49 52.13C135.36 51.69 135.26 51.26 135.18 50.85C135.1 50.44 135.06 50.04 135.05 49.66C135.04 49.66 134.98 49.66 134.98 49.66C134.93 50.34 134.76 51.15 134.47 52.1C134.09 53.35 132.23 59.59 128.88 70.82C128.72 70.82 127.9 70.82 126.43 70.82L119 45.61C120.56 45.61 121.43 45.61 121.6 45.61C124.93 57.48 126.78 64.07 127.15 65.39C127.28 65.82 127.39 66.23 127.46 66.63C127.54 67.02 127.6 67.4 127.65 67.76C127.65 67.76 127.71 67.76 127.72 67.76C127.79 67.23 127.98 66.44 128.3 65.39C128.69 64.07 130.66 57.48 134.2 45.62C134.39 45.62 135.87 45.62 136.05 45.62C139.37 57.52 141.22 64.14 141.58 65.46C141.69 65.86 141.78 66.25 141.87 66.63C141.95 67.01 142.01 67.38 142.06 67.74C142.07 67.74 142.12 67.74 142.13 67.74C142.15 67.51 142.2 67.24 142.27 66.95C142.34 66.66 142.42 66.33 142.51 65.97C142.88 64.61 144.72 57.83 148.03 45.62C148.2 45.62 149.05 45.62 150.58 45.62L143.32 70.82L140.88 70.82C137.53 59.19 135.73 52.96 135.49 52.13Z" id="ehIcBwBgU"></path><path d="M135.49 52.13C135.36 51.69 135.26 51.26 135.18 50.85C135.1 50.44 135.06 50.04 135.05 49.66C135.04 49.66 134.98 49.66 134.98 49.66C134.93 50.34 134.76 51.15 134.47 52.1C134.09 53.35 132.23 59.59 128.88 70.82C128.72 70.82 127.9 70.82 126.43 70.82L119 45.61C120.56 45.61 121.43 45.61 121.6 45.61C124.93 57.48 126.78 64.07 127.15 65.39C127.28 65.82 127.39 66.23 127.46 66.63C127.54 67.02 127.6 67.4 127.65 67.76C127.65 67.76 127.71 67.76 127.72 67.76C127.79 67.23 127.98 66.44 128.3 65.39C128.69 64.07 130.66 57.48 134.2 45.62C134.39 45.62 135.87 45.62 136.05 45.62C139.37 57.52 141.22 64.14 141.58 65.46C141.69 65.86 141.78 66.25 141.87 66.63C141.95 67.01 142.01 67.38 142.06 67.74C142.07 67.74 142.12 67.74 142.13 67.74C142.15 67.51 142.2 67.24 142.27 66.95C142.34 66.66 142.42 66.33 142.51 65.97C142.88 64.61 144.72 57.83 148.03 45.62C148.2 45.62 149.05 45.62 150.58 45.62L143.32 70.82L140.88 70.82C137.53 59.19 135.73 52.96 135.49 52.13Z" id="fOo01AFBs"></path><path d="M156.18 67.55C155.17 66.4 154.39 65.05 153.84 63.5C153.3 61.94 153.03 60.28 153.03 58.5C153.03 56.53 153.3 54.73 153.84 53.09C154.39 51.46 155.18 50.06 156.22 48.89C157.27 47.73 158.54 46.82 160.06 46.17C161.57 45.52 163.29 45.19 165.22 45.19C167 45.19 168.6 45.51 170.02 46.15C171.44 46.79 172.65 47.67 173.64 48.8C174.64 49.93 175.4 51.27 175.94 52.82C176.47 54.37 176.74 56.05 176.74 57.86C176.74 59.77 176.47 61.55 175.95 63.18C175.43 64.81 174.66 66.23 173.65 67.42C172.64 68.62 171.39 69.56 169.91 70.24C168.43 70.92 166.72 71.26 164.78 71.26C162.97 71.26 161.33 70.93 159.88 70.26C158.43 69.6 157.19 68.7 156.18 67.55ZM157.95 50.54C157.14 51.53 156.53 52.69 156.11 54.02C155.69 55.35 155.48 56.77 155.47 58.27C155.46 59.7 155.64 61.06 156.02 62.37C156.4 63.68 156.98 64.83 157.75 65.83C158.51 66.83 159.48 67.63 160.65 68.23C161.83 68.83 163.2 69.13 164.77 69.13C166.34 69.13 167.72 68.86 168.91 68.31C170.1 67.77 171.09 67.01 171.88 66.04C172.68 65.08 173.28 63.93 173.69 62.59C174.09 61.25 174.29 59.8 174.29 58.21C174.29 56.74 174.11 55.34 173.76 54.01C173.4 52.69 172.84 51.53 172.09 50.54C171.33 49.55 170.37 48.77 169.19 48.19C168.02 47.61 166.62 47.32 164.98 47.32C163.45 47.32 162.1 47.61 160.93 48.19C159.75 48.77 158.76 49.55 157.95 50.54Z" id="apNRPx3FM"></path><path d="M156.18 67.55C155.17 66.4 154.39 65.05 153.84 63.5C153.3 61.94 153.03 60.28 153.03 58.5C153.03 56.53 153.3 54.73 153.84 53.09C154.39 51.46 155.18 50.06 156.22 48.89C157.27 47.73 158.54 46.82 160.06 46.17C161.57 45.52 163.29 45.19 165.22 45.19C167 45.19 168.6 45.51 170.02 46.15C171.44 46.79 172.65 47.67 173.64 48.8C174.64 49.93 175.4 51.27 175.94 52.82C176.47 54.37 176.74 56.05 176.74 57.86C176.74 59.77 176.47 61.55 175.95 63.18C175.43 64.81 174.66 66.23 173.65 67.42C172.64 68.62 171.39 69.56 169.91 70.24C168.43 70.92 166.72 71.26 164.78 71.26C162.97 71.26 161.33 70.93 159.88 70.26C158.43 69.6 157.19 68.7 156.18 67.55ZM157.95 50.54C157.14 51.53 156.53 52.69 156.11 54.02C155.69 55.35 155.48 56.77 155.47 58.27C155.46 59.7 155.64 61.06 156.02 62.37C156.4 63.68 156.98 64.83 157.75 65.83C158.51 66.83 159.48 67.63 160.65 68.23C161.83 68.83 163.2 69.13 164.77 69.13C166.34 69.13 167.72 68.86 168.91 68.31C170.1 67.77 171.09 67.01 171.88 66.04C172.68 65.08 173.28 63.93 173.69 62.59C174.09 61.25 174.29 59.8 174.29 58.21C174.29 56.74 174.11 55.34 173.76 54.01C173.4 52.69 172.84 51.53 172.09 50.54C171.33 49.55 170.37 48.77 169.19 48.19C168.02 47.61 166.62 47.32 164.98 47.32C163.45 47.32 162.1 47.61 160.93 48.19C159.75 48.77 158.76 49.55 157.95 50.54Z" id="a1WxqyDUv"></path><path d="M190.62 61.8C190.27 61.32 189.9 60.94 189.53 60.65C189.15 60.36 188.75 60.16 188.33 60.03C187.9 59.91 187.42 59.85 186.89 59.85C186.71 59.85 185.78 59.85 184.12 59.85C184.12 60.58 184.12 64.24 184.12 70.82L181.78 70.82C181.78 55.69 181.78 47.29 181.78 45.61C186.13 45.61 188.55 45.61 189.04 45.61C189.99 45.61 190.9 45.76 191.79 46.04C192.67 46.32 193.46 46.73 194.15 47.28C194.84 47.84 195.4 48.53 195.81 49.36C196.23 50.19 196.44 51.16 196.44 52.26C196.44 53.15 196.3 53.97 196.03 54.72C195.76 55.47 195.38 56.13 194.88 56.71C194.38 57.29 193.78 57.78 193.07 58.19C192.36 58.59 191.56 58.9 190.67 59.09C190.67 59.1 190.67 59.16 190.67 59.16C191.01 59.31 191.32 59.49 191.6 59.71C191.89 59.93 192.16 60.2 192.42 60.52C192.68 60.83 192.95 61.2 193.2 61.61C193.46 62.02 193.73 62.49 194.01 63.01C194.29 63.53 195.71 66.13 198.25 70.82C197.98 70.82 195.78 70.82 195.5 70.82C193.23 66.48 191.96 64.07 191.71 63.59C191.33 62.88 190.97 62.28 190.62 61.8ZM188.3 57.72C189.14 57.72 189.92 57.6 190.62 57.36C191.32 57.11 191.92 56.76 192.42 56.3C192.92 55.84 193.31 55.29 193.58 54.65C193.86 54.01 193.99 53.28 193.99 52.47C193.99 51 193.52 49.85 192.58 49.02C191.64 48.18 190.27 47.76 188.49 47.76C188.2 47.76 186.74 47.76 184.12 47.76C184.12 48.42 184.12 51.74 184.12 57.72C186.72 57.72 188.11 57.72 188.3 57.72Z" id="daQmLbEyiH"></path><path d="M190.62 61.8C190.27 61.32 189.9 60.94 189.53 60.65C189.15 60.36 188.75 60.16 188.33 60.03C187.9 59.91 187.42 59.85 186.89 59.85C186.71 59.85 185.78 59.85 184.12 59.85C184.12 60.58 184.12 64.24 184.12 70.82L181.78 70.82C181.78 55.69 181.78 47.29 181.78 45.61C186.13 45.61 188.55 45.61 189.04 45.61C189.99 45.61 190.9 45.76 191.79 46.04C192.67 46.32 193.46 46.73 194.15 47.28C194.84 47.84 195.4 48.53 195.81 49.36C196.23 50.19 196.44 51.16 196.44 52.26C196.44 53.15 196.3 53.97 196.03 54.72C195.76 55.47 195.38 56.13 194.88 56.71C194.38 57.29 193.78 57.78 193.07 58.19C192.36 58.59 191.56 58.9 190.67 59.09C190.67 59.1 190.67 59.16 190.67 59.16C191.01 59.31 191.32 59.49 191.6 59.71C191.89 59.93 192.16 60.2 192.42 60.52C192.68 60.83 192.95 61.2 193.2 61.61C193.46 62.02 193.73 62.49 194.01 63.01C194.29 63.53 195.71 66.13 198.25 70.82C197.98 70.82 195.78 70.82 195.5 70.82C193.23 66.48 191.96 64.07 191.71 63.59C191.33 62.88 190.97 62.28 190.62 61.8ZM188.3 57.72C189.14 57.72 189.92 57.6 190.62 57.36C191.32 57.11 191.92 56.76 192.42 56.3C192.92 55.84 193.31 55.29 193.58 54.65C193.86 54.01 193.99 53.28 193.99 52.47C193.99 51 193.52 49.85 192.58 49.02C191.64 48.18 190.27 47.76 188.49 47.76C188.2 47.76 186.74 47.76 184.12 47.76C184.12 48.42 184.12 51.74 184.12 57.72C186.72 57.72 188.11 57.72 188.3 57.72Z" id="a1yzsNZH7I"></path><path d="M204.87 45.61L204.87 68.69L215 68.69L215 70.82L202.53 70.82L202.53 45.61L204.87 45.61Z" id="a6qARYaxh7"></path><path d="M204.87 45.61L204.87 68.69L215 68.69L215 70.82L202.53 70.82L202.53 45.61L204.87 45.61Z" id="atJeIDEwv"></path><path d="M225.87 45.61C230.19 45.61 233.44 46.65 235.65 48.72C237.85 50.79 238.95 53.84 238.95 57.88C238.95 59.83 238.64 61.6 238.03 63.19C237.41 64.78 236.52 66.15 235.36 67.28C234.21 68.41 232.8 69.28 231.15 69.9C229.49 70.51 227.63 70.82 225.56 70.82C225.14 70.82 223.03 70.82 219.25 70.82C219.25 69.14 219.25 60.74 219.25 45.61C223.37 45.61 225.58 45.61 225.87 45.61ZM225.45 68.69C227.19 68.69 228.74 68.46 230.1 67.99C231.47 67.52 232.62 66.83 233.57 65.92C234.52 65.02 235.24 63.89 235.74 62.56C236.24 61.22 236.49 59.69 236.49 57.95C236.49 51.16 232.9 47.76 225.72 47.76C225.44 47.76 224.06 47.76 221.59 47.76C221.59 49.16 221.59 56.13 221.59 68.69C223.99 68.69 225.28 68.69 225.45 68.69Z" id="b1E9wlxEj"></path><path d="M225.87 45.61C230.19 45.61 233.44 46.65 235.65 48.72C237.85 50.79 238.95 53.84 238.95 57.88C238.95 59.83 238.64 61.6 238.03 63.19C237.41 64.78 236.52 66.15 235.36 67.28C234.21 68.41 232.8 69.28 231.15 69.9C229.49 70.51 227.63 70.82 225.56 70.82C225.14 70.82 223.03 70.82 219.25 70.82C219.25 69.14 219.25 60.74 219.25 45.61C223.37 45.61 225.58 45.61 225.87 45.61ZM225.45 68.69C227.19 68.69 228.74 68.46 230.1 67.99C231.47 67.52 232.62 66.83 233.57 65.92C234.52 65.02 235.24 63.89 235.74 62.56C236.24 61.22 236.49 59.69 236.49 57.95C236.49 51.16 232.9 47.76 225.72 47.76C225.44 47.76 224.06 47.76 221.59 47.76C221.59 49.16 221.59 56.13 221.59 68.69C223.99 68.69 225.28 68.69 225.45 68.69Z" id="a29MjTMIGG"></path></defs><g><g><g><use xlink:href="#d2a95QMr5v" opacity="1" fill="#000000" fill-opacity="1"></use><g><use xlink:href="#d2a95QMr5v" opacity="1" fill-opacity="0" stroke="#000000" stroke-width="1" stroke-opacity="0"></use></g></g><g><use xlink:href="#abEUT0s8h" opacity="1" fill="#000000" fill-opacity="0"></use><g><use xlink:href="#abEUT0s8h" opacity="1" fill-opacity="0" stroke="#000000" stroke-width="1" stroke-opacity="0"></use></g></g><g><use xlink:href="#k9kQq8D7a" opacity="1" fill="#000000" fill-opacity="1"></use><g><use xlink:href="#k9kQq8D7a" opacity="1" fill-opacity="0" stroke="#000000" stroke-width="1" stroke-opacity="0"></use></g></g><g><use xlink:href="#a6JGccn44" opacity="1" fill="#000000" fill-opacity="0"></use><g><use xlink:href="#a6JGccn44" opacity="1" fill-opacity="0" stroke="#000000" stroke-width="1" stroke-opacity="0"></use></g></g><g><use xlink:href="#b1kBjzXTb3" opacity="1" fill="#000000" fill-opacity="1"></use><g><use xlink:href="#b1kBjzXTb3" opacity="1" fill-opacity="0" stroke="#000000" stroke-width="1" stroke-opacity="0"></use></g></g><g><use xlink:href="#aHkWfeKys" opacity="1" fill="#000000" fill-opacity="0"></use><g><use xlink:href="#aHkWfeKys" opacity="1" fill-opacity="0" stroke="#000000" stroke-width="1" stroke-opacity="0"></use></g></g><g><use xlink:href="#c54QtsXWrz" opacity="1" fill="#000000" fill-opacity="1"></use><g><use xlink:href="#c54QtsXWrz" opacity="1" fill-opacity="0" stroke="#000000" stroke-width="1" stroke-opacity="0"></use></g></g><g><use xlink:href="#c1xXMr1Hvb" opacity="1" fill="#000000" fill-opacity="0"></use><g><use xlink:href="#c1xXMr1Hvb" opacity="1" fill-opacity="0" stroke="#000000" stroke-width="1" stroke-opacity="0"></use></g></g><g><use xlink:href="#cETB2dX5O" opacity="1" fill="#000000" fill-opacity="1"></use><g><use xlink:href="#cETB2dX5O" opacity="1" fill-opacity="0" stroke="#000000" stroke-width="1" stroke-opacity="0"></use></g></g><g><use xlink:href="#cj7VbeT4X" opacity="1" fill="#000000" fill-opacity="0"></use><g><use xlink:href="#cj7VbeT4X" opacity="1" fill-opacity="0" stroke="#000000" stroke-width="1" stroke-opacity="0"></use></g></g><g><use xlink:href="#ehIcBwBgU" opacity="1" fill="#000000" fill-opacity="1"></use><g><use xlink:href="#ehIcBwBgU" opacity="1" fill-opacity="0" stroke="#000000" stroke-width="1" stroke-opacity="0"></use></g></g><g><use xlink:href="#fOo01AFBs" opacity="1" fill="#000000" fill-opacity="0"></use><g><use xlink:href="#fOo01AFBs" opacity="1" fill-opacity="0" stroke="#000000" stroke-width="1" stroke-opacity="0"></use></g></g><g><use xlink:href="#apNRPx3FM" opacity="1" fill="#000000" fill-opacity="1"></use><g><use xlink:href="#apNRPx3FM" opacity="1" fill-opacity="0" stroke="#000000" stroke-width="1" stroke-opacity="0"></use></g></g><g><use xlink:href="#a1WxqyDUv" opacity="1" fill="#000000" fill-opacity="0"></use><g><use xlink:href="#a1WxqyDUv" opacity="1" fill-opacity="0" stroke="#000000" stroke-width="1" stroke-opacity="0"></use></g></g><g><use xlink:href="#daQmLbEyiH" opacity="1" fill="#000000" fill-opacity="1"></use><g><use xlink:href="#daQmLbEyiH" opacity="1" fill-opacity="0" stroke="#000000" stroke-width="1" stroke-opacity="0"></use></g></g><g><use xlink:href="#a1yzsNZH7I" opacity="1" fill="#000000" fill-opacity="0"></use><g><use xlink:href="#a1yzsNZH7I" opacity="1" fill-opacity="0" stroke="#000000" stroke-width="1" stroke-opacity="0"></use></g></g><g><use xlink:href="#a6qARYaxh7" opacity="1" fill="#000000" fill-opacity="1"></use><g><use xlink:href="#a6qARYaxh7" opacity="1" fill-opacity="0" stroke="#000000" stroke-width="1" stroke-opacity="0"></use></g></g><g><use xlink:href="#atJeIDEwv" opacity="1" fill="#000000" fill-opacity="0"></use><g><use xlink:href="#atJeIDEwv" opacity="1" fill-opacity="0" stroke="#000000" stroke-width="1" stroke-opacity="0"></use></g></g><g><use xlink:href="#b1E9wlxEj" opacity="1" fill="#000000" fill-opacity="1"></use><g><use xlink:href="#b1E9wlxEj" opacity="1" fill-opacity="0" stroke="#000000" stroke-width="1" stroke-opacity="0"></use></g></g><g><use xlink:href="#a29MjTMIGG" opacity="1" fill="#000000" fill-opacity="0"></use><g><use xlink:href="#a29MjTMIGG" opacity="1" fill-opacity="0" stroke="#000000" stroke-width="1" stroke-opacity="0"></use></g></g></g></g></svg>